<?xml version="1.0" encoding="UTF-8" standalone="no"?>
<!DOCTYPE svg PUBLIC "-//W3C//DTD SVG 1.1//EN"
 "http://www.w3.org/Graphics/SVG/1.1/DTD/svg11.dtd">
<!-- Generated by graphviz version 2.47.3 (20210619.1520)
 -->
<!-- Title: dependencies Pages: 1 -->
<svg width="220pt" height="247pt"
 viewBox="0.00 0.00 220.00 246.80" xmlns="http://www.w3.org/2000/svg" xmlns:xlink="http://www.w3.org/1999/xlink">
<g id="graph0" class="graph" transform="scale(1 1) rotate(0) translate(4 242.8)">
<title>dependencies</title>
<polygon fill="white" stroke="transparent" points="-4,4 -4,-242.8 216,-242.8 216,4 -4,4"/>
<text text-anchor="middle" x="106" y="-8.2" font-family="sans-serif" font-size="14.00">dependencies</text>
<g id="clust1" class="cluster">
<title>cluster_ApplicantsModule</title>
<polygon fill="none" stroke="black" stroke-dasharray="1,5" points="8,-32.8 8,-230.8 204,-230.8 204,-32.8 8,-32.8"/>
</g>
<g id="clust4" class="cluster">
<title>cluster_ApplicantsModule_exports</title>
<polygon fill="none" stroke="black" points="37,-170.8 37,-222.8 175,-222.8 175,-170.8 37,-170.8"/>
</g>
<g id="clust6" class="cluster">
<title>cluster_ApplicantsModule_providers</title>
<polygon fill="none" stroke="black" points="16,-40.8 16,-92.8 196,-92.8 196,-40.8 16,-40.8"/>
</g>
<!-- ApplicantsService  -->
<g id="node1" class="node">
<title>ApplicantsService </title>
<polygon fill="#fb8072" stroke="black" points="167.13,-214.8 44.87,-214.8 44.87,-178.8 167.13,-178.8 167.13,-214.8"/>
<text text-anchor="middle" x="106" y="-192.6" font-family="Times,serif" font-size="14.00">ApplicantsService </text>
</g>
<!-- ApplicantsModule -->
<g id="node2" class="node">
<title>ApplicantsModule</title>
<polygon fill="#8dd3c7" stroke="black" points="166.2,-149.8 163.2,-153.8 142.2,-153.8 139.2,-149.8 45.8,-149.8 45.8,-113.8 166.2,-113.8 166.2,-149.8"/>
<text text-anchor="middle" x="106" y="-127.6" font-family="Times,serif" font-size="14.00">ApplicantsModule</text>
</g>
<!-- ApplicantsModule&#45;&gt;ApplicantsService  -->
<g id="edge1" class="edge">
<title>ApplicantsModule&#45;&gt;ApplicantsService </title>
<path fill="none" stroke="black" stroke-dasharray="5,2" d="M106,-149.91C106,-149.91 106,-168.79 106,-168.79"/>
<polygon fill="black" stroke="black" points="102.5,-168.79 106,-178.79 109.5,-168.79 102.5,-168.79"/>
</g>
<!-- ApplicantsService -->
<g id="node3" class="node">
<title>ApplicantsService</title>
<ellipse fill="#fdb462" stroke="black" cx="106" cy="-66.8" rx="81.66" ry="18"/>
<text text-anchor="middle" x="106" y="-62.6" font-family="Times,serif" font-size="14.00">ApplicantsService</text>
</g>
<!-- ApplicantsService&#45;&gt;ApplicantsModule -->
<g id="edge2" class="edge">
<title>ApplicantsService&#45;&gt;ApplicantsModule</title>
<path fill="none" stroke="black" d="M106,-84.91C106,-84.91 106,-103.79 106,-103.79"/>
<polygon fill="black" stroke="black" points="102.5,-103.79 106,-113.79 109.5,-103.79 102.5,-103.79"/>
</g>
</g>
</svg>
