<?xml version="1.0" encoding="UTF-8" standalone="no"?>
<!DOCTYPE svg PUBLIC "-//W3C//DTD SVG 1.1//EN"
 "http://www.w3.org/Graphics/SVG/1.1/DTD/svg11.dtd">
<!-- Generated by graphviz version 2.47.3 (20210619.1520)
 -->
<!-- Title: dependencies Pages: 1 -->
<svg width="1460pt" height="174pt"
 viewBox="0.00 0.00 1460.00 173.80" xmlns="http://www.w3.org/2000/svg" xmlns:xlink="http://www.w3.org/1999/xlink">
<g id="graph0" class="graph" transform="scale(1 1) rotate(0) translate(4 169.8)">
<title>dependencies</title>
<polygon fill="white" stroke="transparent" points="-4,4 -4,-169.8 1456,-169.8 1456,4 -4,4"/>
<text text-anchor="middle" x="726" y="-8.2" font-family="sans-serif" font-size="14.00">dependencies</text>
<g id="clust1" class="cluster">
<title>cluster_AppModule</title>
<polygon fill="none" stroke="black" stroke-dasharray="1,5" points="8,-32.8 8,-157.8 1444,-157.8 1444,-32.8 8,-32.8"/>
</g>
<g id="clust6" class="cluster">
<title>cluster_AppModule_providers</title>
<polygon fill="none" stroke="black" points="1306,-40.8 1306,-92.8 1436,-92.8 1436,-40.8 1306,-40.8"/>
</g>
<g id="clust3" class="cluster">
<title>cluster_AppModule_imports</title>
<polygon fill="none" stroke="black" points="16,-40.8 16,-92.8 1298,-92.8 1298,-40.8 16,-40.8"/>
</g>
<!-- ApplicantsModule -->
<g id="node1" class="node">
<title>ApplicantsModule</title>
<polygon fill="#8dd3c7" stroke="black" points="1290.2,-84.8 1287.2,-88.8 1266.2,-88.8 1263.2,-84.8 1169.8,-84.8 1169.8,-48.8 1290.2,-48.8 1290.2,-84.8"/>
<text text-anchor="middle" x="1230" y="-62.6" font-family="Times,serif" font-size="14.00">ApplicantsModule</text>
</g>
<!-- AppModule -->
<g id="node11" class="node">
<title>AppModule</title>
<polygon fill="#8dd3c7" stroke="black" points="753.66,-149.8 750.66,-153.8 729.66,-153.8 726.66,-149.8 670.34,-149.8 670.34,-113.8 753.66,-113.8 753.66,-149.8"/>
<text text-anchor="middle" x="712" y="-127.6" font-family="Times,serif" font-size="14.00">AppModule</text>
</g>
<!-- ApplicantsModule&#45;&gt;AppModule -->
<g id="edge1" class="edge">
<title>ApplicantsModule&#45;&gt;AppModule</title>
<path fill="none" stroke="black" d="M1230,-85.08C1230,-106.12 1230,-137.8 1230,-137.8 1230,-137.8 763.95,-137.8 763.95,-137.8"/>
<polygon fill="black" stroke="black" points="763.95,-134.3 753.95,-137.8 763.95,-141.3 763.95,-134.3"/>
</g>
<!-- ApplicationsModule -->
<g id="node2" class="node">
<title>ApplicationsModule</title>
<polygon fill="#8dd3c7" stroke="black" points="1151.59,-84.8 1148.59,-88.8 1127.59,-88.8 1124.59,-84.8 1020.41,-84.8 1020.41,-48.8 1151.59,-48.8 1151.59,-84.8"/>
<text text-anchor="middle" x="1086" y="-62.6" font-family="Times,serif" font-size="14.00">ApplicationsModule</text>
</g>
<!-- ApplicationsModule&#45;&gt;AppModule -->
<g id="edge2" class="edge">
<title>ApplicationsModule&#45;&gt;AppModule</title>
<path fill="none" stroke="black" d="M1086,-84.91C1086,-104.14 1086,-131.8 1086,-131.8 1086,-131.8 763.81,-131.8 763.81,-131.8"/>
<polygon fill="black" stroke="black" points="763.81,-128.3 753.81,-131.8 763.81,-135.3 763.81,-128.3"/>
</g>
<!-- AuthModule -->
<g id="node3" class="node">
<title>AuthModule</title>
<polygon fill="#8dd3c7" stroke="black" points="1002.55,-84.8 999.55,-88.8 978.55,-88.8 975.55,-84.8 915.45,-84.8 915.45,-48.8 1002.55,-48.8 1002.55,-84.8"/>
<text text-anchor="middle" x="959" y="-62.6" font-family="Times,serif" font-size="14.00">AuthModule</text>
</g>
<!-- AuthModule&#45;&gt;AppModule -->
<g id="edge3" class="edge">
<title>AuthModule&#45;&gt;AppModule</title>
<path fill="none" stroke="black" d="M959,-84.82C959,-102.17 959,-125.8 959,-125.8 959,-125.8 763.9,-125.8 763.9,-125.8"/>
<polygon fill="black" stroke="black" points="763.9,-122.3 753.9,-125.8 763.9,-129.3 763.9,-122.3"/>
</g>
<!-- CommonModule -->
<g id="node4" class="node">
<title>CommonModule</title>
<polygon fill="#8dd3c7" stroke="black" points="896.67,-84.8 893.67,-88.8 872.67,-88.8 869.67,-84.8 785.33,-84.8 785.33,-48.8 896.67,-48.8 896.67,-84.8"/>
<text text-anchor="middle" x="841" y="-62.6" font-family="Times,serif" font-size="14.00">CommonModule</text>
</g>
<!-- CommonModule&#45;&gt;AppModule -->
<g id="edge4" class="edge">
<title>CommonModule&#45;&gt;AppModule</title>
<path fill="none" stroke="black" d="M841,-85.04C841,-100.37 841,-119.8 841,-119.8 841,-119.8 763.88,-119.8 763.88,-119.8"/>
<polygon fill="black" stroke="black" points="763.88,-116.3 753.88,-119.8 763.88,-123.3 763.88,-116.3"/>
</g>
<!-- DatabaseModule -->
<g id="node5" class="node">
<title>DatabaseModule</title>
<polygon fill="#8dd3c7" stroke="black" points="767.35,-84.8 764.35,-88.8 743.35,-88.8 740.35,-84.8 656.65,-84.8 656.65,-48.8 767.35,-48.8 767.35,-84.8"/>
<text text-anchor="middle" x="712" y="-62.6" font-family="Times,serif" font-size="14.00">DatabaseModule</text>
</g>
<!-- DatabaseModule&#45;&gt;AppModule -->
<g id="edge5" class="edge">
<title>DatabaseModule&#45;&gt;AppModule</title>
<path fill="none" stroke="black" d="M712,-84.91C712,-84.91 712,-103.79 712,-103.79"/>
<polygon fill="black" stroke="black" points="708.5,-103.79 712,-113.79 715.5,-103.79 708.5,-103.79"/>
</g>
<!-- FeatureConfigModule -->
<g id="node6" class="node">
<title>FeatureConfigModule</title>
<polygon fill="#8dd3c7" stroke="black" points="638.42,-84.8 635.42,-88.8 614.42,-88.8 611.42,-84.8 497.58,-84.8 497.58,-48.8 638.42,-48.8 638.42,-84.8"/>
<text text-anchor="middle" x="568" y="-62.6" font-family="Times,serif" font-size="14.00">FeatureConfigModule</text>
</g>
<!-- FeatureConfigModule&#45;&gt;AppModule -->
<g id="edge6" class="edge">
<title>FeatureConfigModule&#45;&gt;AppModule</title>
<path fill="none" stroke="black" d="M568,-85.04C568,-100.37 568,-119.8 568,-119.8 568,-119.8 659.96,-119.8 659.96,-119.8"/>
<polygon fill="black" stroke="black" points="659.96,-123.3 669.96,-119.8 659.96,-116.3 659.96,-123.3"/>
</g>
<!-- FilesModule -->
<g id="node7" class="node">
<title>FilesModule</title>
<polygon fill="#8dd3c7" stroke="black" points="479.27,-84.8 476.27,-88.8 455.27,-88.8 452.27,-84.8 392.73,-84.8 392.73,-48.8 479.27,-48.8 479.27,-84.8"/>
<text text-anchor="middle" x="436" y="-62.6" font-family="Times,serif" font-size="14.00">FilesModule</text>
</g>
<!-- FilesModule&#45;&gt;AppModule -->
<g id="edge7" class="edge">
<title>FilesModule&#45;&gt;AppModule</title>
<path fill="none" stroke="black" d="M436,-84.82C436,-102.17 436,-125.8 436,-125.8 436,-125.8 660.08,-125.8 660.08,-125.8"/>
<polygon fill="black" stroke="black" points="660.08,-129.3 670.08,-125.8 660.08,-122.3 660.08,-129.3"/>
</g>
<!-- JobsModule -->
<g id="node8" class="node">
<title>JobsModule</title>
<polygon fill="#8dd3c7" stroke="black" points="374.44,-84.8 371.44,-88.8 350.44,-88.8 347.44,-84.8 289.56,-84.8 289.56,-48.8 374.44,-48.8 374.44,-84.8"/>
<text text-anchor="middle" x="332" y="-62.6" font-family="Times,serif" font-size="14.00">JobsModule</text>
</g>
<!-- JobsModule&#45;&gt;AppModule -->
<g id="edge8" class="edge">
<title>JobsModule&#45;&gt;AppModule</title>
<path fill="none" stroke="black" d="M332,-84.91C332,-104.14 332,-131.8 332,-131.8 332,-131.8 660.25,-131.8 660.25,-131.8"/>
<polygon fill="black" stroke="black" points="660.25,-135.3 670.25,-131.8 660.25,-128.3 660.25,-135.3"/>
</g>
<!-- OrganizationsModule -->
<g id="node9" class="node">
<title>OrganizationsModule</title>
<polygon fill="#8dd3c7" stroke="black" points="272.08,-84.8 269.08,-88.8 248.08,-88.8 245.08,-84.8 133.92,-84.8 133.92,-48.8 272.08,-48.8 272.08,-84.8"/>
<text text-anchor="middle" x="203" y="-62.6" font-family="Times,serif" font-size="14.00">OrganizationsModule</text>
</g>
<!-- OrganizationsModule&#45;&gt;AppModule -->
<g id="edge9" class="edge">
<title>OrganizationsModule&#45;&gt;AppModule</title>
<path fill="none" stroke="black" d="M203,-85.08C203,-106.12 203,-137.8 203,-137.8 203,-137.8 659.91,-137.8 659.91,-137.8"/>
<polygon fill="black" stroke="black" points="659.91,-141.3 669.91,-137.8 659.91,-134.3 659.91,-141.3"/>
</g>
<!-- UsersModule -->
<g id="node10" class="node">
<title>UsersModule</title>
<polygon fill="#8dd3c7" stroke="black" points="115.92,-84.8 112.92,-88.8 91.92,-88.8 88.92,-84.8 24.08,-84.8 24.08,-48.8 115.92,-48.8 115.92,-84.8"/>
<text text-anchor="middle" x="70" y="-62.6" font-family="Times,serif" font-size="14.00">UsersModule</text>
</g>
<!-- UsersModule&#45;&gt;AppModule -->
<g id="edge10" class="edge">
<title>UsersModule&#45;&gt;AppModule</title>
<path fill="none" stroke="black" d="M70,-84.89C70,-107.93 70,-144.8 70,-144.8 70,-144.8 659.88,-144.8 659.88,-144.8"/>
<polygon fill="black" stroke="black" points="659.88,-148.3 669.88,-144.8 659.88,-141.3 659.88,-148.3"/>
</g>
<!-- AppService -->
<g id="node12" class="node">
<title>AppService</title>
<ellipse fill="#fdb462" stroke="black" cx="1371" cy="-66.8" rx="56.74" ry="18"/>
<text text-anchor="middle" x="1371" y="-62.6" font-family="Times,serif" font-size="14.00">AppService</text>
</g>
<!-- AppService&#45;&gt;AppModule -->
<g id="edge11" class="edge">
<title>AppService&#45;&gt;AppModule</title>
<path fill="none" stroke="black" d="M1371,-84.89C1371,-107.93 1371,-144.8 1371,-144.8 1371,-144.8 763.72,-144.8 763.72,-144.8"/>
<polygon fill="black" stroke="black" points="763.72,-141.3 753.72,-144.8 763.72,-148.3 763.72,-141.3"/>
</g>
</g>
</svg>
