<?xml version="1.0" encoding="UTF-8" standalone="no"?>
<!DOCTYPE svg PUBLIC "-//W3C//DTD SVG 1.1//EN"
 "http://www.w3.org/Graphics/SVG/1.1/DTD/svg11.dtd">
<!-- Generated by graphviz version 2.47.3 (20210619.1520)
 -->
<!-- Title: dependencies Pages: 1 -->
<svg width="2967pt" height="261pt"
 viewBox="0.00 0.00 2967.00 260.80" xmlns="http://www.w3.org/2000/svg" xmlns:xlink="http://www.w3.org/1999/xlink">
<g id="graph0" class="graph" transform="scale(1 1) rotate(0) translate(4 256.8)">
<title>dependencies</title>
<polygon fill="white" stroke="transparent" points="-4,4 -4,-256.8 2963,-256.8 2963,4 -4,4"/>
<text text-anchor="middle" x="1479.5" y="-8.2" font-family="sans-serif" font-size="14.00">dependencies</text>
<g id="clust1" class="cluster">
<title>cluster_ApplicantsModule</title>
<polygon fill="none" stroke="black" stroke-dasharray="1,5" points="8,-32.8 8,-244.8 204,-244.8 204,-32.8 8,-32.8"/>
</g>
<g id="clust4" class="cluster">
<title>cluster_ApplicantsModule_exports</title>
<polygon fill="none" stroke="black" points="47,-184.8 47,-236.8 185,-236.8 185,-184.8 47,-184.8"/>
</g>
<g id="clust6" class="cluster">
<title>cluster_ApplicantsModule_providers</title>
<polygon fill="none" stroke="black" points="16,-40.8 16,-92.8 196,-92.8 196,-40.8 16,-40.8"/>
</g>
<g id="clust7" class="cluster">
<title>cluster_ApplicationsModule</title>
<polygon fill="none" stroke="black" stroke-dasharray="1,5" points="2741,-32.8 2741,-244.8 2951,-244.8 2951,-32.8 2741,-32.8"/>
</g>
<g id="clust10" class="cluster">
<title>cluster_ApplicationsModule_exports</title>
<polygon fill="none" stroke="black" points="2760,-184.8 2760,-236.8 2910,-236.8 2910,-184.8 2760,-184.8"/>
</g>
<g id="clust12" class="cluster">
<title>cluster_ApplicationsModule_providers</title>
<polygon fill="none" stroke="black" points="2749,-40.8 2749,-92.8 2943,-92.8 2943,-40.8 2749,-40.8"/>
</g>
<g id="clust13" class="cluster">
<title>cluster_AppModule</title>
<polygon fill="none" stroke="black" stroke-dasharray="1,5" points="764,-32.8 764,-236.8 1807,-236.8 1807,-32.8 764,-32.8"/>
</g>
<g id="clust15" class="cluster">
<title>cluster_AppModule_imports</title>
<polygon fill="none" stroke="black" points="910,-40.8 910,-168.8 1799,-168.8 1799,-40.8 910,-40.8"/>
</g>
<g id="clust18" class="cluster">
<title>cluster_AppModule_providers</title>
<polygon fill="none" stroke="black" points="772,-116.8 772,-168.8 902,-168.8 902,-116.8 772,-116.8"/>
</g>
<g id="clust19" class="cluster">
<title>cluster_AuthModule</title>
<polygon fill="none" stroke="black" stroke-dasharray="1,5" points="212,-32.8 212,-100.8 756,-100.8 756,-32.8 212,-32.8"/>
</g>
<g id="clust22" class="cluster">
<title>cluster_AuthModule_exports</title>
<polygon fill="none" stroke="black" points="642,-40.8 642,-92.8 748,-92.8 748,-40.8 642,-40.8"/>
</g>
<g id="clust24" class="cluster">
<title>cluster_AuthModule_providers</title>
<polygon fill="none" stroke="black" points="220,-40.8 220,-92.8 634,-92.8 634,-40.8 220,-40.8"/>
</g>
<g id="clust43" class="cluster">
<title>cluster_FilesModule</title>
<polygon fill="none" stroke="black" stroke-dasharray="1,5" points="1815,-108.8 1815,-176.8 2077,-176.8 2077,-108.8 1815,-108.8"/>
</g>
<g id="clust46" class="cluster">
<title>cluster_FilesModule_exports</title>
<polygon fill="none" stroke="black" points="1965,-116.8 1965,-168.8 2069,-168.8 2069,-116.8 1965,-116.8"/>
</g>
<g id="clust48" class="cluster">
<title>cluster_FilesModule_providers</title>
<polygon fill="none" stroke="black" points="1823,-116.8 1823,-168.8 1957,-168.8 1957,-116.8 1823,-116.8"/>
</g>
<g id="clust49" class="cluster">
<title>cluster_JobsModule</title>
<polygon fill="none" stroke="black" stroke-dasharray="1,5" points="2085,-108.8 2085,-176.8 2341,-176.8 2341,-108.8 2085,-108.8"/>
</g>
<g id="clust52" class="cluster">
<title>cluster_JobsModule_exports</title>
<polygon fill="none" stroke="black" points="2231,-116.8 2231,-168.8 2333,-168.8 2333,-116.8 2231,-116.8"/>
</g>
<g id="clust54" class="cluster">
<title>cluster_JobsModule_providers</title>
<polygon fill="none" stroke="black" points="2093,-116.8 2093,-168.8 2223,-168.8 2223,-116.8 2093,-116.8"/>
</g>
<g id="clust55" class="cluster">
<title>cluster_OrganizationsModule</title>
<polygon fill="none" stroke="black" stroke-dasharray="1,5" points="2349,-108.8 2349,-176.8 2733,-176.8 2733,-108.8 2349,-108.8"/>
</g>
<g id="clust58" class="cluster">
<title>cluster_OrganizationsModule_exports</title>
<polygon fill="none" stroke="black" points="2569,-116.8 2569,-168.8 2725,-168.8 2725,-116.8 2569,-116.8"/>
</g>
<g id="clust60" class="cluster">
<title>cluster_OrganizationsModule_providers</title>
<polygon fill="none" stroke="black" points="2357,-116.8 2357,-168.8 2561,-168.8 2561,-116.8 2357,-116.8"/>
</g>
<!-- ApplicantsService  -->
<g id="node1" class="node">
<title>ApplicantsService </title>
<polygon fill="#fb8072" stroke="black" points="177.13,-228.8 54.87,-228.8 54.87,-192.8 177.13,-192.8 177.13,-228.8"/>
<text text-anchor="middle" x="116" y="-206.6" font-family="Times,serif" font-size="14.00">ApplicantsService </text>
</g>
<!-- ApplicantsModule -->
<g id="node2" class="node">
<title>ApplicantsModule</title>
<polygon fill="#8dd3c7" stroke="black" points="176.2,-160.8 173.2,-164.8 152.2,-164.8 149.2,-160.8 55.8,-160.8 55.8,-124.8 176.2,-124.8 176.2,-160.8"/>
<text text-anchor="middle" x="116" y="-138.6" font-family="Times,serif" font-size="14.00">ApplicantsModule</text>
</g>
<!-- ApplicantsModule&#45;&gt;ApplicantsService  -->
<g id="edge1" class="edge">
<title>ApplicantsModule&#45;&gt;ApplicantsService </title>
<path fill="none" stroke="black" stroke-dasharray="5,2" d="M116,-161.02C116,-161.02 116,-182.53 116,-182.53"/>
<polygon fill="black" stroke="black" points="112.5,-182.53 116,-192.53 119.5,-182.53 112.5,-182.53"/>
</g>
<!-- AppModule -->
<g id="node15" class="node">
<title>AppModule</title>
<polygon fill="#8dd3c7" stroke="black" points="1254.66,-228.8 1251.66,-232.8 1230.66,-232.8 1227.66,-228.8 1171.34,-228.8 1171.34,-192.8 1254.66,-192.8 1254.66,-228.8"/>
<text text-anchor="middle" x="1213" y="-206.6" font-family="Times,serif" font-size="14.00">AppModule</text>
</g>
<!-- ApplicantsModule&#45;&gt;AppModule -->
<g id="edge5" class="edge">
<title>ApplicantsModule&#45;&gt;AppModule</title>
<path fill="none" stroke="black" d="M176.22,-142.8C193.52,-142.8 207.81,-142.8 207.81,-142.8 207.81,-142.8 207.81,-221.8 207.81,-221.8 207.81,-221.8 1161.09,-221.8 1161.09,-221.8"/>
<polygon fill="black" stroke="black" points="1161.09,-225.3 1171.09,-221.8 1161.09,-218.3 1161.09,-225.3"/>
</g>
<!-- ApplicantsService -->
<g id="node3" class="node">
<title>ApplicantsService</title>
<ellipse fill="#fdb462" stroke="black" cx="106" cy="-66.8" rx="81.66" ry="18"/>
<text text-anchor="middle" x="106" y="-62.6" font-family="Times,serif" font-size="14.00">ApplicantsService</text>
</g>
<!-- ApplicantsService&#45;&gt;ApplicantsModule -->
<g id="edge2" class="edge">
<title>ApplicantsService&#45;&gt;ApplicantsModule</title>
<path fill="none" stroke="black" d="M116,-84.81C116,-84.81 116,-114.65 116,-114.65"/>
<polygon fill="black" stroke="black" points="112.5,-114.65 116,-124.65 119.5,-114.65 112.5,-114.65"/>
</g>
<!-- ApplicationsService  -->
<g id="node4" class="node">
<title>ApplicationsService </title>
<polygon fill="#fb8072" stroke="black" points="2901.52,-228.8 2768.48,-228.8 2768.48,-192.8 2901.52,-192.8 2901.52,-228.8"/>
<text text-anchor="middle" x="2835" y="-206.6" font-family="Times,serif" font-size="14.00">ApplicationsService </text>
</g>
<!-- ApplicationsModule -->
<g id="node5" class="node">
<title>ApplicationsModule</title>
<polygon fill="#8dd3c7" stroke="black" points="2900.59,-160.8 2897.59,-164.8 2876.59,-164.8 2873.59,-160.8 2769.41,-160.8 2769.41,-124.8 2900.59,-124.8 2900.59,-160.8"/>
<text text-anchor="middle" x="2835" y="-138.6" font-family="Times,serif" font-size="14.00">ApplicationsModule</text>
</g>
<!-- ApplicationsModule&#45;&gt;ApplicationsService  -->
<g id="edge3" class="edge">
<title>ApplicationsModule&#45;&gt;ApplicationsService </title>
<path fill="none" stroke="black" stroke-dasharray="5,2" d="M2835,-161.02C2835,-161.02 2835,-182.53 2835,-182.53"/>
<polygon fill="black" stroke="black" points="2831.5,-182.53 2835,-192.53 2838.5,-182.53 2831.5,-182.53"/>
</g>
<!-- ApplicationsModule&#45;&gt;AppModule -->
<g id="edge6" class="edge">
<title>ApplicationsModule&#45;&gt;AppModule</title>
<path fill="none" stroke="black" d="M2769.26,-142.8C2765.12,-142.8 2762.57,-142.8 2762.57,-142.8 2762.57,-142.8 2762.57,-222.8 2762.57,-222.8 2762.57,-222.8 1264.85,-222.8 1264.85,-222.8"/>
<polygon fill="black" stroke="black" points="1264.85,-219.3 1254.85,-222.8 1264.85,-226.3 1264.85,-219.3"/>
</g>
<!-- ApplicationsService -->
<g id="node6" class="node">
<title>ApplicationsService</title>
<ellipse fill="#fdb462" stroke="black" cx="2846" cy="-66.8" rx="89.18" ry="18"/>
<text text-anchor="middle" x="2846" y="-62.6" font-family="Times,serif" font-size="14.00">ApplicationsService</text>
</g>
<!-- ApplicationsService&#45;&gt;ApplicationsModule -->
<g id="edge4" class="edge">
<title>ApplicationsService&#45;&gt;ApplicationsModule</title>
<path fill="none" stroke="black" d="M2835,-84.81C2835,-84.81 2835,-114.65 2835,-114.65"/>
<polygon fill="black" stroke="black" points="2831.5,-114.65 2835,-124.65 2838.5,-114.65 2831.5,-114.65"/>
</g>
<!-- AuthModule -->
<g id="node7" class="node">
<title>AuthModule</title>
<polygon fill="#8dd3c7" stroke="black" points="1005.55,-160.8 1002.55,-164.8 981.55,-164.8 978.55,-160.8 918.45,-160.8 918.45,-124.8 1005.55,-124.8 1005.55,-160.8"/>
<text text-anchor="middle" x="962" y="-138.6" font-family="Times,serif" font-size="14.00">AuthModule</text>
</g>
<!-- AuthModule&#45;&gt;AppModule -->
<g id="edge7" class="edge">
<title>AuthModule&#45;&gt;AppModule</title>
<path fill="none" stroke="black" d="M1005.76,-148.8C1074.25,-148.8 1199.06,-148.8 1199.06,-148.8 1199.06,-148.8 1199.06,-182.53 1199.06,-182.53"/>
<polygon fill="black" stroke="black" points="1195.56,-182.53 1199.06,-192.53 1202.56,-182.53 1195.56,-182.53"/>
</g>
<!-- AuthService  -->
<g id="node17" class="node">
<title>AuthService </title>
<polygon fill="#fb8072" stroke="black" points="739.98,-84.8 650.02,-84.8 650.02,-48.8 739.98,-48.8 739.98,-84.8"/>
<text text-anchor="middle" x="695" y="-62.6" font-family="Times,serif" font-size="14.00">AuthService </text>
</g>
<!-- AuthModule&#45;&gt;AuthService  -->
<g id="edge17" class="edge">
<title>AuthModule&#45;&gt;AuthService </title>
<path fill="none" stroke="black" stroke-dasharray="5,2" d="M918.37,-142.8C911.13,-142.8 905.92,-142.8 905.92,-142.8 905.92,-142.8 905.92,-66.8 905.92,-66.8 905.92,-66.8 749.99,-66.8 749.99,-66.8"/>
<polygon fill="black" stroke="black" points="749.99,-63.3 739.99,-66.8 749.99,-70.3 749.99,-63.3"/>
</g>
<!-- CommonModule -->
<g id="node8" class="node">
<title>CommonModule</title>
<polygon fill="#8dd3c7" stroke="black" points="1139.67,-84.8 1136.67,-88.8 1115.67,-88.8 1112.67,-84.8 1028.33,-84.8 1028.33,-48.8 1139.67,-48.8 1139.67,-84.8"/>
<text text-anchor="middle" x="1084" y="-62.6" font-family="Times,serif" font-size="14.00">CommonModule</text>
</g>
<!-- CommonModule&#45;&gt;AppModule -->
<g id="edge8" class="edge">
<title>CommonModule&#45;&gt;AppModule</title>
<path fill="none" stroke="black" d="M1084,-84.87C1084,-121.45 1084,-200.8 1084,-200.8 1084,-200.8 1161.12,-200.8 1161.12,-200.8"/>
<polygon fill="black" stroke="black" points="1161.12,-204.3 1171.12,-200.8 1161.12,-197.3 1161.12,-204.3"/>
</g>
<!-- DatabaseModule -->
<g id="node9" class="node">
<title>DatabaseModule</title>
<polygon fill="#8dd3c7" stroke="black" points="1268.35,-84.8 1265.35,-88.8 1244.35,-88.8 1241.35,-84.8 1157.65,-84.8 1157.65,-48.8 1268.35,-48.8 1268.35,-84.8"/>
<text text-anchor="middle" x="1213" y="-62.6" font-family="Times,serif" font-size="14.00">DatabaseModule</text>
</g>
<!-- DatabaseModule&#45;&gt;AppModule -->
<g id="edge9" class="edge">
<title>DatabaseModule&#45;&gt;AppModule</title>
<path fill="none" stroke="black" d="M1226.94,-85.04C1226.94,-85.04 1226.94,-182.71 1226.94,-182.71"/>
<polygon fill="black" stroke="black" points="1223.44,-182.71 1226.94,-192.71 1230.44,-182.71 1223.44,-182.71"/>
</g>
<!-- FeatureConfigModule -->
<g id="node10" class="node">
<title>FeatureConfigModule</title>
<polygon fill="#8dd3c7" stroke="black" points="1427.42,-84.8 1424.42,-88.8 1403.42,-88.8 1400.42,-84.8 1286.58,-84.8 1286.58,-48.8 1427.42,-48.8 1427.42,-84.8"/>
<text text-anchor="middle" x="1357" y="-62.6" font-family="Times,serif" font-size="14.00">FeatureConfigModule</text>
</g>
<!-- FeatureConfigModule&#45;&gt;AppModule -->
<g id="edge10" class="edge">
<title>FeatureConfigModule&#45;&gt;AppModule</title>
<path fill="none" stroke="black" d="M1357,-84.88C1357,-121.03 1357,-198.8 1357,-198.8 1357,-198.8 1265.04,-198.8 1265.04,-198.8"/>
<polygon fill="black" stroke="black" points="1265.04,-195.3 1255.04,-198.8 1265.04,-202.3 1265.04,-195.3"/>
</g>
<!-- FilesModule -->
<g id="node11" class="node">
<title>FilesModule</title>
<polygon fill="#8dd3c7" stroke="black" points="1532.27,-84.8 1529.27,-88.8 1508.27,-88.8 1505.27,-84.8 1445.73,-84.8 1445.73,-48.8 1532.27,-48.8 1532.27,-84.8"/>
<text text-anchor="middle" x="1489" y="-62.6" font-family="Times,serif" font-size="14.00">FilesModule</text>
</g>
<!-- FilesModule&#45;&gt;AppModule -->
<g id="edge11" class="edge">
<title>FilesModule&#45;&gt;AppModule</title>
<path fill="none" stroke="black" d="M1489,-84.84C1489,-122.25 1489,-204.8 1489,-204.8 1489,-204.8 1264.92,-204.8 1264.92,-204.8"/>
<polygon fill="black" stroke="black" points="1264.92,-201.3 1254.92,-204.8 1264.92,-208.3 1264.92,-201.3"/>
</g>
<!-- FilesService  -->
<g id="node21" class="node">
<title>FilesService </title>
<polygon fill="#fb8072" stroke="black" points="2061.2,-160.8 1972.8,-160.8 1972.8,-124.8 2061.2,-124.8 2061.2,-160.8"/>
<text text-anchor="middle" x="2017" y="-138.6" font-family="Times,serif" font-size="14.00">FilesService </text>
</g>
<!-- FilesModule&#45;&gt;FilesService  -->
<g id="edge21" class="edge">
<title>FilesModule&#45;&gt;FilesService </title>
<path fill="none" stroke="black" stroke-dasharray="5,2" d="M1467.31,-85.22C1467.31,-94.08 1467.31,-102.8 1467.31,-102.8 1467.31,-102.8 2017,-102.8 2017,-102.8 2017,-102.8 2017,-114.67 2017,-114.67"/>
<polygon fill="black" stroke="black" points="2013.5,-114.67 2017,-124.67 2020.5,-114.67 2013.5,-114.67"/>
</g>
<!-- JobsModule -->
<g id="node12" class="node">
<title>JobsModule</title>
<polygon fill="#8dd3c7" stroke="black" points="1635.44,-84.8 1632.44,-88.8 1611.44,-88.8 1608.44,-84.8 1550.56,-84.8 1550.56,-48.8 1635.44,-48.8 1635.44,-84.8"/>
<text text-anchor="middle" x="1593" y="-62.6" font-family="Times,serif" font-size="14.00">JobsModule</text>
</g>
<!-- JobsModule&#45;&gt;AppModule -->
<g id="edge12" class="edge">
<title>JobsModule&#45;&gt;AppModule</title>
<path fill="none" stroke="black" d="M1614.11,-85.04C1614.11,-123.79 1614.11,-210.8 1614.11,-210.8 1614.11,-210.8 1264.79,-210.8 1264.79,-210.8"/>
<polygon fill="black" stroke="black" points="1264.79,-207.3 1254.79,-210.8 1264.79,-214.3 1264.79,-207.3"/>
</g>
<!-- JobsService  -->
<g id="node23" class="node">
<title>JobsService </title>
<polygon fill="#fb8072" stroke="black" points="2325.37,-160.8 2238.63,-160.8 2238.63,-124.8 2325.37,-124.8 2325.37,-160.8"/>
<text text-anchor="middle" x="2282" y="-138.6" font-family="Times,serif" font-size="14.00">JobsService </text>
</g>
<!-- JobsModule&#45;&gt;JobsService  -->
<g id="edge23" class="edge">
<title>JobsModule&#45;&gt;JobsService </title>
<path fill="none" stroke="black" stroke-dasharray="5,2" d="M1571.89,-84.99C1571.89,-88.34 1571.89,-90.8 1571.89,-90.8 1571.89,-90.8 2282,-90.8 2282,-90.8 2282,-90.8 2282,-114.61 2282,-114.61"/>
<polygon fill="black" stroke="black" points="2278.5,-114.61 2282,-124.61 2285.5,-114.61 2278.5,-114.61"/>
</g>
<!-- OrganizationsModule -->
<g id="node13" class="node">
<title>OrganizationsModule</title>
<polygon fill="#8dd3c7" stroke="black" points="1791.08,-84.8 1788.08,-88.8 1767.08,-88.8 1764.08,-84.8 1652.92,-84.8 1652.92,-48.8 1791.08,-48.8 1791.08,-84.8"/>
<text text-anchor="middle" x="1722" y="-62.6" font-family="Times,serif" font-size="14.00">OrganizationsModule</text>
</g>
<!-- OrganizationsModule&#45;&gt;AppModule -->
<g id="edge13" class="edge">
<title>OrganizationsModule&#45;&gt;AppModule</title>
<path fill="none" stroke="black" d="M1722,-84.89C1722,-124.79 1722,-216.8 1722,-216.8 1722,-216.8 1265.09,-216.8 1265.09,-216.8"/>
<polygon fill="black" stroke="black" points="1265.09,-213.3 1255.09,-216.8 1265.09,-220.3 1265.09,-213.3"/>
</g>
<!-- OrganizationsService  -->
<g id="node25" class="node">
<title>OrganizationsService </title>
<polygon fill="#fb8072" stroke="black" points="2717.01,-160.8 2576.99,-160.8 2576.99,-124.8 2717.01,-124.8 2717.01,-160.8"/>
<text text-anchor="middle" x="2647" y="-138.6" font-family="Times,serif" font-size="14.00">OrganizationsService </text>
</g>
<!-- OrganizationsModule&#45;&gt;OrganizationsService  -->
<g id="edge25" class="edge">
<title>OrganizationsModule&#45;&gt;OrganizationsService </title>
<path fill="none" stroke="black" stroke-dasharray="5,2" d="M1791.15,-60.8C2005.89,-60.8 2647,-60.8 2647,-60.8 2647,-60.8 2647,-114.6 2647,-114.6"/>
<polygon fill="black" stroke="black" points="2643.5,-114.6 2647,-124.6 2650.5,-114.6 2643.5,-114.6"/>
</g>
<!-- UsersModule -->
<g id="node14" class="node">
<title>UsersModule</title>
<polygon fill="#8dd3c7" stroke="black" points="1009.92,-84.8 1006.92,-88.8 985.92,-88.8 982.92,-84.8 918.08,-84.8 918.08,-48.8 1009.92,-48.8 1009.92,-84.8"/>
<text text-anchor="middle" x="964" y="-62.6" font-family="Times,serif" font-size="14.00">UsersModule</text>
</g>
<!-- UsersModule&#45;&gt;AuthModule -->
<g id="edge16" class="edge">
<title>UsersModule&#45;&gt;AuthModule</title>
<path fill="none" stroke="black" d="M988.28,-84.81C988.28,-84.81 988.28,-114.65 988.28,-114.65"/>
<polygon fill="black" stroke="black" points="984.78,-114.65 988.28,-124.65 991.78,-114.65 984.78,-114.65"/>
</g>
<!-- UsersModule&#45;&gt;AppModule -->
<g id="edge14" class="edge">
<title>UsersModule&#45;&gt;AppModule</title>
<path fill="none" stroke="black" d="M1009.87,-66.8C1015.29,-66.8 1018.94,-66.8 1018.94,-66.8 1018.94,-66.8 1018.94,-207.8 1018.94,-207.8 1018.94,-207.8 1160.89,-207.8 1160.89,-207.8"/>
<polygon fill="black" stroke="black" points="1160.89,-211.3 1170.89,-207.8 1160.89,-204.3 1160.89,-211.3"/>
</g>
<!-- AppService -->
<g id="node16" class="node">
<title>AppService</title>
<ellipse fill="#fdb462" stroke="black" cx="837" cy="-142.8" rx="56.74" ry="18"/>
<text text-anchor="middle" x="837" y="-138.6" font-family="Times,serif" font-size="14.00">AppService</text>
</g>
<!-- AppService&#45;&gt;AppModule -->
<g id="edge15" class="edge">
<title>AppService&#45;&gt;AppModule</title>
<path fill="none" stroke="black" d="M837,-160.97C837,-182.3 837,-214.8 837,-214.8 837,-214.8 1161.32,-214.8 1161.32,-214.8"/>
<polygon fill="black" stroke="black" points="1161.32,-218.3 1171.32,-214.8 1161.32,-211.3 1161.32,-218.3"/>
</g>
<!-- AuthService -->
<g id="node18" class="node">
<title>AuthService</title>
<ellipse fill="#fdb462" stroke="black" cx="567" cy="-66.8" rx="59.11" ry="18"/>
<text text-anchor="middle" x="567" y="-62.6" font-family="Times,serif" font-size="14.00">AuthService</text>
</g>
<!-- AuthService&#45;&gt;AuthModule -->
<g id="edge18" class="edge">
<title>AuthService&#45;&gt;AuthModule</title>
<path fill="none" stroke="black" d="M567,-84.9C567,-95.89 567,-107.8 567,-107.8 567,-107.8 970.78,-107.8 970.78,-107.8 970.78,-107.8 970.78,-114.48 970.78,-114.48"/>
<polygon fill="black" stroke="black" points="967.28,-114.48 970.78,-124.48 974.28,-114.48 967.28,-114.48"/>
</g>
<!-- JwtStrategy -->
<g id="node19" class="node">
<title>JwtStrategy</title>
<ellipse fill="#fdb462" stroke="black" cx="433" cy="-66.8" rx="56.76" ry="18"/>
<text text-anchor="middle" x="433" y="-62.6" font-family="Times,serif" font-size="14.00">JwtStrategy</text>
</g>
<!-- JwtStrategy&#45;&gt;AuthModule -->
<g id="edge19" class="edge">
<title>JwtStrategy&#45;&gt;AuthModule</title>
<path fill="none" stroke="black" d="M433,-84.84C433,-98.09 433,-113.8 433,-113.8 433,-113.8 953.28,-113.8 953.28,-113.8 953.28,-113.8 953.28,-114.88 953.28,-114.88"/>
<polygon fill="black" stroke="black" points="949.78,-114.6 953.28,-124.6 956.78,-114.6 949.78,-114.6"/>
</g>
<!-- LocalStrategy -->
<g id="node20" class="node">
<title>LocalStrategy</title>
<ellipse fill="#fdb462" stroke="black" cx="293" cy="-66.8" rx="65.41" ry="18"/>
<text text-anchor="middle" x="293" y="-62.6" font-family="Times,serif" font-size="14.00">LocalStrategy</text>
</g>
<!-- LocalStrategy&#45;&gt;AuthModule -->
<g id="edge20" class="edge">
<title>LocalStrategy&#45;&gt;AuthModule</title>
<path fill="none" stroke="black" d="M293,-85.04C293,-100.37 293,-119.8 293,-119.8 293,-119.8 935.79,-119.8 935.79,-119.8 935.79,-119.8 935.79,-120.29 935.79,-120.29"/>
<polygon fill="black" stroke="black" points="932.29,-114.68 935.79,-124.68 939.29,-114.68 932.29,-114.68"/>
</g>
<!-- FilesService -->
<g id="node22" class="node">
<title>FilesService</title>
<ellipse fill="#fdb462" stroke="black" cx="1890" cy="-142.8" rx="58.54" ry="18"/>
<text text-anchor="middle" x="1890" y="-138.6" font-family="Times,serif" font-size="14.00">FilesService</text>
</g>
<!-- FilesService&#45;&gt;FilesModule -->
<g id="edge22" class="edge">
<title>FilesService&#45;&gt;FilesModule</title>
<path fill="none" stroke="black" d="M1834.44,-136.8C1729.08,-136.8 1510.69,-136.8 1510.69,-136.8 1510.69,-136.8 1510.69,-94.83 1510.69,-94.83"/>
<polygon fill="black" stroke="black" points="1514.19,-94.83 1510.69,-84.83 1507.19,-94.83 1514.19,-94.83"/>
</g>
<!-- JobsService -->
<g id="node24" class="node">
<title>JobsService</title>
<ellipse fill="#fdb462" stroke="black" cx="2158" cy="-142.8" rx="57.32" ry="18"/>
<text text-anchor="middle" x="2158" y="-138.6" font-family="Times,serif" font-size="14.00">JobsService</text>
</g>
<!-- JobsService&#45;&gt;JobsModule -->
<g id="edge24" class="edge">
<title>JobsService&#45;&gt;JobsModule</title>
<path fill="none" stroke="black" d="M2158,-124.62C2158,-111.76 2158,-96.8 2158,-96.8 2158,-96.8 1593,-96.8 1593,-96.8 1593,-96.8 1593,-94.94 1593,-94.94"/>
<polygon fill="black" stroke="black" points="1596.5,-94.94 1593,-84.94 1589.5,-94.94 1596.5,-94.94"/>
</g>
<!-- OrganizationsService -->
<g id="node26" class="node">
<title>OrganizationsService</title>
<ellipse fill="#fdb462" stroke="black" cx="2459" cy="-142.8" rx="94.32" ry="18"/>
<text text-anchor="middle" x="2459" y="-138.6" font-family="Times,serif" font-size="14.00">OrganizationsService</text>
</g>
<!-- OrganizationsService&#45;&gt;OrganizationsModule -->
<g id="edge26" class="edge">
<title>OrganizationsService&#45;&gt;OrganizationsModule</title>
<path fill="none" stroke="black" d="M2459,-124.77C2459,-104.03 2459,-72.8 2459,-72.8 2459,-72.8 1801.34,-72.8 1801.34,-72.8"/>
<polygon fill="black" stroke="black" points="1801.34,-69.3 1791.34,-72.8 1801.34,-76.3 1801.34,-69.3"/>
</g>
</g>
</svg>
